<mxfile host="app.diagrams.net" modified="2023-11-17T18:49:31.102Z" agent="Mozilla/5.0 (Windows NT 10.0; Win64; x64) AppleWebKit/537.36 (KHTML, like Gecko) Chrome/119.0.0.0 Safari/537.36 Edg/119.0.0.0" etag="v4AV_ziCpvuOq4Ji9L3H" version="22.1.3" type="github">
  <diagram name="第 1 页" id="LxhMGTJQKrq0RmWp3fId">
    <mxGraphModel dx="1253" dy="711" grid="1" gridSize="10" guides="1" tooltips="1" connect="1" arrows="1" fold="1" page="1" pageScale="1" pageWidth="827" pageHeight="1169" math="0" shadow="0">
      <root>
        <mxCell id="0" />
        <mxCell id="1" parent="0" />
        <mxCell id="YxiNmTXXxCwCdmfokw9f-1" value="Input a,b,c" style="shape=parallelogram;perimeter=parallelogramPerimeter;whiteSpace=wrap;html=1;fixedSize=1;" parent="1" vertex="1">
          <mxGeometry x="350" y="280" width="120" height="50" as="geometry" />
        </mxCell>
        <mxCell id="MdCAw-Lzw2xr19QINidt-1" value="Start" style="rounded=1;whiteSpace=wrap;html=1;" parent="1" vertex="1">
          <mxGeometry x="350" y="150" width="120" height="60" as="geometry" />
        </mxCell>
        <mxCell id="MdCAw-Lzw2xr19QINidt-5" value="" style="edgeStyle=orthogonalEdgeStyle;rounded=0;orthogonalLoop=1;jettySize=auto;html=1;" parent="1" source="MdCAw-Lzw2xr19QINidt-3" edge="1">
          <mxGeometry relative="1" as="geometry">
            <mxPoint x="540" y="410" as="targetPoint" />
          </mxGeometry>
        </mxCell>
        <mxCell id="MdCAw-Lzw2xr19QINidt-6" value="Yes" style="edgeLabel;html=1;align=center;verticalAlign=middle;resizable=0;points=[];" parent="MdCAw-Lzw2xr19QINidt-5" vertex="1" connectable="0">
          <mxGeometry x="-0.3067" y="4" relative="1" as="geometry">
            <mxPoint as="offset" />
          </mxGeometry>
        </mxCell>
        <mxCell id="MdCAw-Lzw2xr19QINidt-10" value="" style="edgeStyle=orthogonalEdgeStyle;rounded=0;orthogonalLoop=1;jettySize=auto;html=1;" parent="1" source="MdCAw-Lzw2xr19QINidt-3" target="MdCAw-Lzw2xr19QINidt-9" edge="1">
          <mxGeometry relative="1" as="geometry" />
        </mxCell>
        <mxCell id="MdCAw-Lzw2xr19QINidt-11" value="No" style="edgeLabel;html=1;align=center;verticalAlign=middle;resizable=0;points=[];" parent="MdCAw-Lzw2xr19QINidt-10" vertex="1" connectable="0">
          <mxGeometry x="-0.225" y="4" relative="1" as="geometry">
            <mxPoint as="offset" />
          </mxGeometry>
        </mxCell>
        <mxCell id="MdCAw-Lzw2xr19QINidt-3" value="a&amp;gt;b" style="rhombus;whiteSpace=wrap;html=1;" parent="1" vertex="1">
          <mxGeometry x="370" y="370" width="80" height="80" as="geometry" />
        </mxCell>
        <mxCell id="MdCAw-Lzw2xr19QINidt-17" value="" style="edgeStyle=orthogonalEdgeStyle;rounded=0;orthogonalLoop=1;jettySize=auto;html=1;" parent="1" edge="1">
          <mxGeometry relative="1" as="geometry">
            <mxPoint x="620" y="409.5" as="sourcePoint" />
            <mxPoint x="690" y="409.5" as="targetPoint" />
          </mxGeometry>
        </mxCell>
        <mxCell id="MdCAw-Lzw2xr19QINidt-26" value="yes" style="edgeLabel;html=1;align=center;verticalAlign=middle;resizable=0;points=[];" parent="MdCAw-Lzw2xr19QINidt-17" vertex="1" connectable="0">
          <mxGeometry x="-0.2914" y="-1" relative="1" as="geometry">
            <mxPoint as="offset" />
          </mxGeometry>
        </mxCell>
        <mxCell id="MdCAw-Lzw2xr19QINidt-7" value="a&amp;gt;c" style="rhombus;whiteSpace=wrap;html=1;" parent="1" vertex="1">
          <mxGeometry x="540" y="370" width="80" height="80" as="geometry" />
        </mxCell>
        <mxCell id="MdCAw-Lzw2xr19QINidt-15" value="" style="edgeStyle=orthogonalEdgeStyle;rounded=0;orthogonalLoop=1;jettySize=auto;html=1;" parent="1" source="MdCAw-Lzw2xr19QINidt-9" target="MdCAw-Lzw2xr19QINidt-14" edge="1">
          <mxGeometry relative="1" as="geometry" />
        </mxCell>
        <mxCell id="MdCAw-Lzw2xr19QINidt-22" value="Yes" style="edgeLabel;html=1;align=center;verticalAlign=middle;resizable=0;points=[];" parent="MdCAw-Lzw2xr19QINidt-15" vertex="1" connectable="0">
          <mxGeometry x="-0.1771" y="-1" relative="1" as="geometry">
            <mxPoint as="offset" />
          </mxGeometry>
        </mxCell>
        <mxCell id="MdCAw-Lzw2xr19QINidt-41" value="" style="edgeStyle=orthogonalEdgeStyle;rounded=0;orthogonalLoop=1;jettySize=auto;html=1;" parent="1" source="MdCAw-Lzw2xr19QINidt-9" target="MdCAw-Lzw2xr19QINidt-40" edge="1">
          <mxGeometry relative="1" as="geometry" />
        </mxCell>
        <mxCell id="7D8FU_tJ7CZbeIVJiM2J-5" value="No" style="edgeLabel;html=1;align=center;verticalAlign=middle;resizable=0;points=[];" vertex="1" connectable="0" parent="MdCAw-Lzw2xr19QINidt-41">
          <mxGeometry x="-0.0989" y="-3" relative="1" as="geometry">
            <mxPoint as="offset" />
          </mxGeometry>
        </mxCell>
        <mxCell id="MdCAw-Lzw2xr19QINidt-9" value="b&amp;gt;c" style="rhombus;whiteSpace=wrap;html=1;" parent="1" vertex="1">
          <mxGeometry x="370" y="530" width="80" height="80" as="geometry" />
        </mxCell>
        <mxCell id="MdCAw-Lzw2xr19QINidt-14" value="print b is the geastest" style="shape=parallelogram;perimeter=parallelogramPerimeter;whiteSpace=wrap;html=1;fixedSize=1;" parent="1" vertex="1">
          <mxGeometry x="510" y="540" width="150" height="60" as="geometry" />
        </mxCell>
        <mxCell id="MdCAw-Lzw2xr19QINidt-16" value="print a is the geastest" style="shape=parallelogram;perimeter=parallelogramPerimeter;whiteSpace=wrap;html=1;fixedSize=1;" parent="1" vertex="1">
          <mxGeometry x="680" y="380" width="150" height="60" as="geometry" />
        </mxCell>
        <mxCell id="MdCAw-Lzw2xr19QINidt-20" value="print c is the geastest" style="shape=parallelogram;perimeter=parallelogramPerimeter;whiteSpace=wrap;html=1;fixedSize=1;" parent="1" vertex="1">
          <mxGeometry x="670" y="460" width="150" height="60" as="geometry" />
        </mxCell>
        <mxCell id="MdCAw-Lzw2xr19QINidt-34" value="" style="endArrow=classic;html=1;rounded=0;entryX=0;entryY=0.5;entryDx=0;entryDy=0;exitX=0.5;exitY=1;exitDx=0;exitDy=0;" parent="1" source="MdCAw-Lzw2xr19QINidt-7" target="MdCAw-Lzw2xr19QINidt-20" edge="1">
          <mxGeometry width="50" height="50" relative="1" as="geometry">
            <mxPoint x="390" y="550" as="sourcePoint" />
            <mxPoint x="440" y="500" as="targetPoint" />
            <Array as="points">
              <mxPoint x="580" y="490" />
            </Array>
          </mxGeometry>
        </mxCell>
        <mxCell id="MdCAw-Lzw2xr19QINidt-36" value="No" style="edgeLabel;html=1;align=center;verticalAlign=middle;resizable=0;points=[];" parent="MdCAw-Lzw2xr19QINidt-34" vertex="1" connectable="0">
          <mxGeometry x="-0.6257" y="1" relative="1" as="geometry">
            <mxPoint as="offset" />
          </mxGeometry>
        </mxCell>
        <mxCell id="MdCAw-Lzw2xr19QINidt-35" value="" style="endArrow=classic;html=1;rounded=0;exitX=1;exitY=0.5;exitDx=0;exitDy=0;entryX=1;entryY=0.5;entryDx=0;entryDy=0;" parent="1" source="MdCAw-Lzw2xr19QINidt-16" target="MdCAw-Lzw2xr19QINidt-39" edge="1">
          <mxGeometry width="50" height="50" relative="1" as="geometry">
            <mxPoint x="860" y="430" as="sourcePoint" />
            <mxPoint x="450" y="680" as="targetPoint" />
            <Array as="points">
              <mxPoint x="890" y="410" />
              <mxPoint x="890" y="820" />
            </Array>
          </mxGeometry>
        </mxCell>
        <mxCell id="MdCAw-Lzw2xr19QINidt-37" value="" style="endArrow=classic;html=1;rounded=0;exitX=1;exitY=0.5;exitDx=0;exitDy=0;" parent="1" source="MdCAw-Lzw2xr19QINidt-20" edge="1">
          <mxGeometry width="50" height="50" relative="1" as="geometry">
            <mxPoint x="600" y="440" as="sourcePoint" />
            <mxPoint x="890" y="490" as="targetPoint" />
          </mxGeometry>
        </mxCell>
        <mxCell id="MdCAw-Lzw2xr19QINidt-38" value="" style="endArrow=classic;html=1;rounded=0;exitX=1;exitY=0.5;exitDx=0;exitDy=0;" parent="1" source="MdCAw-Lzw2xr19QINidt-14" edge="1">
          <mxGeometry width="50" height="50" relative="1" as="geometry">
            <mxPoint x="600" y="440" as="sourcePoint" />
            <mxPoint x="890" y="570" as="targetPoint" />
          </mxGeometry>
        </mxCell>
        <mxCell id="MdCAw-Lzw2xr19QINidt-39" value="End" style="rounded=1;whiteSpace=wrap;html=1;" parent="1" vertex="1">
          <mxGeometry x="350" y="790" width="120" height="60" as="geometry" />
        </mxCell>
        <mxCell id="MdCAw-Lzw2xr19QINidt-40" value="print some thing wrong with the number" style="shape=parallelogram;perimeter=parallelogramPerimeter;whiteSpace=wrap;html=1;fixedSize=1;" parent="1" vertex="1">
          <mxGeometry x="350" y="670" width="120" height="60" as="geometry" />
        </mxCell>
        <mxCell id="MdCAw-Lzw2xr19QINidt-43" value="" style="endArrow=classic;html=1;rounded=0;exitX=0.5;exitY=1;exitDx=0;exitDy=0;entryX=0.5;entryY=0;entryDx=0;entryDy=0;" parent="1" source="MdCAw-Lzw2xr19QINidt-40" target="MdCAw-Lzw2xr19QINidt-39" edge="1">
          <mxGeometry width="50" height="50" relative="1" as="geometry">
            <mxPoint x="600" y="560" as="sourcePoint" />
            <mxPoint x="650" y="510" as="targetPoint" />
          </mxGeometry>
        </mxCell>
        <mxCell id="7D8FU_tJ7CZbeIVJiM2J-1" value="Question 1" style="rounded=0;whiteSpace=wrap;html=1;" vertex="1" parent="1">
          <mxGeometry x="90" y="140" width="120" height="60" as="geometry" />
        </mxCell>
        <mxCell id="7D8FU_tJ7CZbeIVJiM2J-2" value="Question 2" style="rounded=0;whiteSpace=wrap;html=1;" vertex="1" parent="1">
          <mxGeometry x="920" y="130" width="120" height="60" as="geometry" />
        </mxCell>
        <mxCell id="7D8FU_tJ7CZbeIVJiM2J-13" value="" style="edgeStyle=orthogonalEdgeStyle;rounded=0;orthogonalLoop=1;jettySize=auto;html=1;" edge="1" parent="1" source="7D8FU_tJ7CZbeIVJiM2J-4">
          <mxGeometry relative="1" as="geometry">
            <mxPoint x="1301" y="320" as="targetPoint" />
          </mxGeometry>
        </mxCell>
        <mxCell id="7D8FU_tJ7CZbeIVJiM2J-4" value="Start" style="rounded=1;whiteSpace=wrap;html=1;" vertex="1" parent="1">
          <mxGeometry x="1241" y="180" width="120" height="60" as="geometry" />
        </mxCell>
        <mxCell id="7D8FU_tJ7CZbeIVJiM2J-6" value="" style="endArrow=classic;html=1;rounded=0;exitX=0.5;exitY=1;exitDx=0;exitDy=0;entryX=0.5;entryY=0;entryDx=0;entryDy=0;" edge="1" parent="1" source="MdCAw-Lzw2xr19QINidt-1" target="YxiNmTXXxCwCdmfokw9f-1">
          <mxGeometry width="50" height="50" relative="1" as="geometry">
            <mxPoint x="710" y="340" as="sourcePoint" />
            <mxPoint x="760" y="290" as="targetPoint" />
          </mxGeometry>
        </mxCell>
        <mxCell id="7D8FU_tJ7CZbeIVJiM2J-7" value="" style="endArrow=classic;html=1;rounded=0;exitX=0.5;exitY=1;exitDx=0;exitDy=0;entryX=0.5;entryY=0;entryDx=0;entryDy=0;" edge="1" parent="1" source="YxiNmTXXxCwCdmfokw9f-1" target="MdCAw-Lzw2xr19QINidt-3">
          <mxGeometry width="50" height="50" relative="1" as="geometry">
            <mxPoint x="700" y="440" as="sourcePoint" />
            <mxPoint x="750" y="390" as="targetPoint" />
          </mxGeometry>
        </mxCell>
        <mxCell id="7D8FU_tJ7CZbeIVJiM2J-9" value="End" style="rounded=1;whiteSpace=wrap;html=1;" vertex="1" parent="1">
          <mxGeometry x="1240" y="1169" width="120" height="60" as="geometry" />
        </mxCell>
        <mxCell id="7D8FU_tJ7CZbeIVJiM2J-16" value="" style="edgeStyle=orthogonalEdgeStyle;rounded=0;orthogonalLoop=1;jettySize=auto;html=1;" edge="1" parent="1" source="7D8FU_tJ7CZbeIVJiM2J-14" target="7D8FU_tJ7CZbeIVJiM2J-15">
          <mxGeometry relative="1" as="geometry" />
        </mxCell>
        <mxCell id="7D8FU_tJ7CZbeIVJiM2J-14" value="sum=0" style="rounded=0;whiteSpace=wrap;html=1;" vertex="1" parent="1">
          <mxGeometry x="1241" y="320" width="120" height="60" as="geometry" />
        </mxCell>
        <mxCell id="7D8FU_tJ7CZbeIVJiM2J-18" value="" style="edgeStyle=orthogonalEdgeStyle;rounded=0;orthogonalLoop=1;jettySize=auto;html=1;" edge="1" parent="1" source="7D8FU_tJ7CZbeIVJiM2J-15" target="7D8FU_tJ7CZbeIVJiM2J-17">
          <mxGeometry relative="1" as="geometry" />
        </mxCell>
        <mxCell id="7D8FU_tJ7CZbeIVJiM2J-15" value="num=0" style="rounded=0;whiteSpace=wrap;html=1;" vertex="1" parent="1">
          <mxGeometry x="1241" y="460" width="120" height="60" as="geometry" />
        </mxCell>
        <mxCell id="7D8FU_tJ7CZbeIVJiM2J-20" value="" style="edgeStyle=orthogonalEdgeStyle;rounded=0;orthogonalLoop=1;jettySize=auto;html=1;" edge="1" parent="1" source="7D8FU_tJ7CZbeIVJiM2J-17" target="7D8FU_tJ7CZbeIVJiM2J-19">
          <mxGeometry relative="1" as="geometry" />
        </mxCell>
        <mxCell id="7D8FU_tJ7CZbeIVJiM2J-17" value="num=num+1" style="rounded=0;whiteSpace=wrap;html=1;" vertex="1" parent="1">
          <mxGeometry x="1241" y="600" width="120" height="60" as="geometry" />
        </mxCell>
        <mxCell id="7D8FU_tJ7CZbeIVJiM2J-22" value="" style="edgeStyle=orthogonalEdgeStyle;rounded=0;orthogonalLoop=1;jettySize=auto;html=1;" edge="1" parent="1" source="7D8FU_tJ7CZbeIVJiM2J-19" target="7D8FU_tJ7CZbeIVJiM2J-21">
          <mxGeometry relative="1" as="geometry" />
        </mxCell>
        <mxCell id="7D8FU_tJ7CZbeIVJiM2J-19" value="sum=sum+num" style="rounded=0;whiteSpace=wrap;html=1;" vertex="1" parent="1">
          <mxGeometry x="1241" y="740" width="120" height="60" as="geometry" />
        </mxCell>
        <mxCell id="7D8FU_tJ7CZbeIVJiM2J-24" value="" style="edgeStyle=orthogonalEdgeStyle;rounded=0;orthogonalLoop=1;jettySize=auto;html=1;" edge="1" parent="1" source="7D8FU_tJ7CZbeIVJiM2J-21" target="7D8FU_tJ7CZbeIVJiM2J-23">
          <mxGeometry relative="1" as="geometry" />
        </mxCell>
        <mxCell id="7D8FU_tJ7CZbeIVJiM2J-27" value="Yes" style="edgeLabel;html=1;align=center;verticalAlign=middle;resizable=0;points=[];" vertex="1" connectable="0" parent="7D8FU_tJ7CZbeIVJiM2J-24">
          <mxGeometry x="-0.2148" y="1" relative="1" as="geometry">
            <mxPoint as="offset" />
          </mxGeometry>
        </mxCell>
        <mxCell id="7D8FU_tJ7CZbeIVJiM2J-21" value="Is num=10?" style="rhombus;whiteSpace=wrap;html=1;rounded=0;" vertex="1" parent="1">
          <mxGeometry x="1261" y="870" width="80" height="80" as="geometry" />
        </mxCell>
        <mxCell id="7D8FU_tJ7CZbeIVJiM2J-23" value="print sum" style="shape=parallelogram;perimeter=parallelogramPerimeter;whiteSpace=wrap;html=1;fixedSize=1;rounded=0;" vertex="1" parent="1">
          <mxGeometry x="1241" y="1040" width="120" height="60" as="geometry" />
        </mxCell>
        <mxCell id="7D8FU_tJ7CZbeIVJiM2J-25" value="" style="endArrow=classic;html=1;rounded=0;entryX=0.5;entryY=0;entryDx=0;entryDy=0;exitX=0.5;exitY=1;exitDx=0;exitDy=0;" edge="1" parent="1" source="7D8FU_tJ7CZbeIVJiM2J-23" target="7D8FU_tJ7CZbeIVJiM2J-9">
          <mxGeometry width="50" height="50" relative="1" as="geometry">
            <mxPoint x="1110" y="1020" as="sourcePoint" />
            <mxPoint x="1160" y="970" as="targetPoint" />
          </mxGeometry>
        </mxCell>
        <mxCell id="7D8FU_tJ7CZbeIVJiM2J-26" value="" style="endArrow=classic;html=1;rounded=0;exitX=0;exitY=0.5;exitDx=0;exitDy=0;" edge="1" parent="1" source="7D8FU_tJ7CZbeIVJiM2J-21">
          <mxGeometry width="50" height="50" relative="1" as="geometry">
            <mxPoint x="1110" y="820" as="sourcePoint" />
            <mxPoint x="1240" y="630" as="targetPoint" />
            <Array as="points">
              <mxPoint x="1140" y="910" />
              <mxPoint x="1140" y="630" />
            </Array>
          </mxGeometry>
        </mxCell>
        <mxCell id="7D8FU_tJ7CZbeIVJiM2J-28" value="No" style="edgeLabel;html=1;align=center;verticalAlign=middle;resizable=0;points=[];" vertex="1" connectable="0" parent="7D8FU_tJ7CZbeIVJiM2J-26">
          <mxGeometry x="-0.7698" y="-1" relative="1" as="geometry">
            <mxPoint as="offset" />
          </mxGeometry>
        </mxCell>
      </root>
    </mxGraphModel>
  </diagram>
</mxfile>
